<svg xmlns="http://www.w3.org/2000/svg" width="90.017" height="68.139" viewBox="0 0 90.017 68.139">
  <g id="logo" transform="translate(0 -0.1)">
    <path id="Path_1" data-name="Path 1" d="M2.675,27.826,5.068,26.7l-2.6,3.238L0,31.064Z" transform="translate(0 -7.876)" fill="#ec008c"/>
    <path id="Path_2" data-name="Path 2" d="M30.812,1.015l-.563,2.956L26.8,3.056,27.434.1Z" transform="translate(-7.935 0)" fill="#ec008c"/>
    <path id="Path_3" data-name="Path 3" d="M23.512,25.215l-.563,2.956L19.5,27.256l.634-2.956Z" transform="translate(-5.774 -7.165)" fill="#ec008c"/>
    <path id="Path_4" data-name="Path 4" d="M22.76,86.874l1.619-.774-1.76,2.253-1.619.7Z" transform="translate(-6.218 -25.463)" fill="#ec008c"/>
    <path id="Path_5" data-name="Path 5" d="M67.575,90.763,67.153,92.8,64.9,92.171l.352-1.971Z" transform="translate(-19.216 -26.677)" fill="#ec008c"/>
    <path id="Path_6" data-name="Path 6" d="M64.312,2.245l-1.76,1.83L60.3,4.356,60.863,1.4Z" transform="translate(-17.854 -0.385)" fill="#ec008c"/>
    <path id="Path_7" data-name="Path 7" d="M79.112,19.608l-2.745,1.2L75.1,17.5l2.816-1.2Z" transform="translate(-22.236 -4.797)" fill="#ec008c"/>
    <rect id="Rectangle_1" data-name="Rectangle 1" width="1.056" height="2.464" transform="translate(61.196 2.552) rotate(-89.497)" fill="#ec008c"/>
    <rect id="Rectangle_2" data-name="Rectangle 2" width="1.408" height="0.563" transform="matrix(0.702, -0.712, 0.712, 0.702, 33.535, 14.428)" fill="#ec008c"/>
    <g id="Group_3" data-name="Group 3" transform="translate(3.027 23.892)">
      <g id="Group_1" data-name="Group 1" transform="translate(18.935)">
        <path id="Path_8" data-name="Path 8" d="M34.086,34.1a1.948,1.948,0,0,1,.915.211,2.907,2.907,0,0,1,.774.493,1.822,1.822,0,0,1,.493.774,4.3,4.3,0,0,1,.211.915,1.949,1.949,0,0,1-.211.915A2.115,2.115,0,0,1,35,38.675a1.948,1.948,0,0,1-.915.211h-1.9v3.731H31.2V34.1Zm0,3.731a1.55,1.55,0,0,0,.563-.07.9.9,0,0,0,.422-.282,1.473,1.473,0,0,0,.282-.422,1.305,1.305,0,0,0,.141-.493A2.176,2.176,0,0,0,35.353,36a1.294,1.294,0,0,0-.7-.7,1.372,1.372,0,0,0-.563-.07h-1.9v2.745h1.9Z" transform="translate(-31.2 -33.959)" fill="#ec008c"/>
        <path id="Path_9" data-name="Path 9" d="M41.5,34.1h2.886a1.948,1.948,0,0,1,.915.211,2.115,2.115,0,0,1,1.267,1.267,1.949,1.949,0,0,1,.211.915,2.53,2.53,0,0,1-.141.774,1.846,1.846,0,0,1-.352.634,3.252,3.252,0,0,1-.493.493,2.853,2.853,0,0,1-.634.352c.141.282.282.634.422.985s.282.634.422.985.282.634.422.985.282.634.422.915H45.723L44.1,38.887H42.556v3.731H41.57L41.5,34.1Zm.985,3.731h1.9a1.55,1.55,0,0,0,.563-.07,1.294,1.294,0,0,0,.7-.7,1.2,1.2,0,0,0,.07-.493,1.749,1.749,0,0,0-.07-.563.9.9,0,0,0-.282-.422,1.473,1.473,0,0,0-.422-.282,1.372,1.372,0,0,0-.563-.07h-1.9Z" transform="translate(-34.25 -33.959)" fill="#ec008c"/>
        <path id="Path_10" data-name="Path 10" d="M58.454,39.561a3.288,3.288,0,0,1-.211,1.2,2.757,2.757,0,0,1-1.619,1.619,3.5,3.5,0,0,1-2.393,0,2.757,2.757,0,0,1-1.619-1.619,3.288,3.288,0,0,1-.211-1.2V37.027a3.288,3.288,0,0,1,.211-1.2,2.758,2.758,0,0,1,1.619-1.619,3.5,3.5,0,0,1,2.393,0,2.758,2.758,0,0,1,1.619,1.619,3.288,3.288,0,0,1,.211,1.2Zm-.985-2.534a3.533,3.533,0,0,0-.141-.845,2.457,2.457,0,0,0-.422-.634,2,2,0,0,0-.634-.422,1.65,1.65,0,0,0-.845-.141,3.533,3.533,0,0,0-.845.141,2.457,2.457,0,0,0-.634.422,2,2,0,0,0-.422.634,1.65,1.65,0,0,0-.141.845v2.534a3.533,3.533,0,0,0,.141.845,2.457,2.457,0,0,0,.422.634,2,2,0,0,0,.634.422,1.651,1.651,0,0,0,.845.141,3.533,3.533,0,0,0,.845-.141,1.432,1.432,0,0,0,.634-.422,2,2,0,0,0,.422-.634,1.651,1.651,0,0,0,.141-.845Z" transform="translate(-37.477 -33.93)" fill="#ec008c"/>
        <path id="Path_11" data-name="Path 11" d="M64.608,41.773a2.314,2.314,0,0,1-.282,1.2,3.173,3.173,0,0,1-.7.985,2.651,2.651,0,0,1-1.056.634A3.986,3.986,0,0,1,61.3,44.8v-.985a3.567,3.567,0,0,0,.915-.141,6.191,6.191,0,0,0,.7-.422,3.868,3.868,0,0,0,.493-.634,1.672,1.672,0,0,0,.211-.845V34.1h.985Z" transform="translate(-40.112 -33.959)" fill="#ec008c"/>
        <path id="Path_12" data-name="Path 12" d="M69.1,34.1h5.279v1.056H70.085V37.9h3.731v1.056H70.085V41.7h4.294v.985H69.1Z" transform="translate(-42.422 -33.959)" fill="#ec008c"/>
        <path id="Path_13" data-name="Path 13" d="M82.527,33.9a2.739,2.739,0,0,1,1.619.493,4.092,4.092,0,0,1,1.2,1.267l-.915.493a2.636,2.636,0,0,0-.845-.915,2.127,2.127,0,0,0-1.126-.352,3.533,3.533,0,0,0-.845.141,2.457,2.457,0,0,0-.634.422,1.927,1.927,0,0,0-.563,1.478v2.534a3.533,3.533,0,0,0,.141.845,2.457,2.457,0,0,0,.422.634,1.662,1.662,0,0,0,.634.422,2.625,2.625,0,0,0,.845.141,2.348,2.348,0,0,0,1.971-1.267l.915.493A3.448,3.448,0,0,1,84.146,42a3.348,3.348,0,0,1-1.619.493,3.288,3.288,0,0,1-1.2-.211,2.757,2.757,0,0,1-1.619-1.619,3.288,3.288,0,0,1-.211-1.2V36.927a3.288,3.288,0,0,1,.211-1.2,2.757,2.757,0,0,1,1.619-1.619A3.288,3.288,0,0,1,82.527,33.9Z" transform="translate(-45.501 -33.9)" fill="#ec008c"/>
        <path id="Path_14" data-name="Path 14" d="M93.979,35.185v7.462h-.985V35.185H90.6V34.2h5.772v.985Z" transform="translate(-48.787 -33.989)" fill="#ec008c"/>
      </g>
      <g id="Group_2" data-name="Group 2" transform="translate(0 8.095)">
        <path id="Path_15" data-name="Path 15" d="M13.662,45.4a6.969,6.969,0,0,1,2.956.634,8.149,8.149,0,0,1,4.153,4.153,7.06,7.06,0,0,1,.634,3.027,6.969,6.969,0,0,1-.634,2.956,8.525,8.525,0,0,1-1.689,2.464,7.141,7.141,0,0,1-2.464,1.619,6.969,6.969,0,0,1-2.956.634H7.608V72.923H4.3V45.47h9.362Zm0,12.107a4.253,4.253,0,0,0,1.689-.352,4.86,4.86,0,0,0,1.408-.915,3.751,3.751,0,0,0,.915-1.408,4.231,4.231,0,0,0,0-3.379,4.86,4.86,0,0,0-.915-1.408,3.751,3.751,0,0,0-1.408-.915,4.839,4.839,0,0,0-1.689-.352H7.608v8.729Z" transform="translate(-4.3 -45.4)" fill="#ec008c"/>
        <path id="Path_16" data-name="Path 16" d="M36.614,57.1a9.913,9.913,0,0,1,3.8.774,9.613,9.613,0,0,1,3.168,2.112,9.324,9.324,0,0,1,2.112,3.1,9.913,9.913,0,0,1,.774,3.8v9.432H43.231V74.205a9.855,9.855,0,0,1-10.348,1.689,9.324,9.324,0,0,1-3.1-2.112,8.661,8.661,0,0,1-2.112-3.1,9.717,9.717,0,0,1,0-7.6,8.661,8.661,0,0,1,2.112-3.1A9.66,9.66,0,0,1,36.614,57.1Zm0,3.238a6.033,6.033,0,0,0-2.534.493,6.931,6.931,0,0,0-2.112,1.408A8.508,8.508,0,0,0,30.56,64.35a6.257,6.257,0,0,0-.493,2.534,6.033,6.033,0,0,0,.493,2.534,8.508,8.508,0,0,0,1.408,2.112,6.524,6.524,0,0,0,2.112,1.408,6.257,6.257,0,0,0,2.534.493,6.593,6.593,0,0,0,2.6-.493A8.508,8.508,0,0,0,41.33,71.53a6.524,6.524,0,0,0,1.408-2.112,6.257,6.257,0,0,0,.493-2.534,6.033,6.033,0,0,0-.493-2.534,6.931,6.931,0,0,0-1.408-2.112,5.569,5.569,0,0,0-2.112-1.408A6.363,6.363,0,0,0,36.614,60.338Z" transform="translate(-10.992 -48.864)" fill="#ec008c"/>
        <path id="Path_17" data-name="Path 17" d="M61.838,76.346H58.6V66.984a8.819,8.819,0,0,1,.845-3.8,10.034,10.034,0,0,1,2.253-3.1,13.275,13.275,0,0,1,3.308-2.112,11.089,11.089,0,0,1,4.083-.774v3.238a7.409,7.409,0,0,0-2.816.493,7.9,7.9,0,0,0-2.323,1.408A7.423,7.423,0,0,0,62.4,64.45a6.327,6.327,0,0,0-.563,2.534S61.838,76.346,61.838,76.346Z" transform="translate(-20.377 -48.894)" fill="#ec008c"/>
        <path id="Path_18" data-name="Path 18" d="M76.7,51.3h3.238v4.575h6.546v3.168H79.938V69.6A1.965,1.965,0,0,0,80.5,71.01a1.862,1.862,0,0,0,1.478.563,1.94,1.94,0,0,0,1.478-.774,2.9,2.9,0,0,0,.563-1.9h3.168a6.2,6.2,0,0,1-.422,2.323,6.466,6.466,0,0,1-1.126,1.9,4.622,4.622,0,0,1-1.619,1.267,5.119,5.119,0,0,1-2.041.493,5.049,5.049,0,0,1-2.041-.422,5.177,5.177,0,0,1-2.816-2.816A5.049,5.049,0,0,1,76.7,69.6Z" transform="translate(-25.737 -47.147)" fill="#ec008c"/>
        <path id="Path_19" data-name="Path 19" d="M101.632,76.846a6.656,6.656,0,0,1-2.886-.634A7.625,7.625,0,0,1,94.734,72.2a6.886,6.886,0,0,1-.634-2.886V57.7h3.238V69.385a4.253,4.253,0,0,0,.352,1.689,4.509,4.509,0,0,0,.915,1.337,4.127,4.127,0,0,0,1.337.915,4.231,4.231,0,0,0,3.379,0,4.509,4.509,0,0,0,1.337-.915,4.127,4.127,0,0,0,.915-1.337,4.253,4.253,0,0,0,.352-1.689V57.7h3.168V77.762a6.969,6.969,0,0,1-.634,2.956,7.274,7.274,0,0,1-1.76,2.393,9.006,9.006,0,0,1-2.6,1.619,8.26,8.26,0,0,1-3.238.563V82.126a6.107,6.107,0,0,0,1.971-.352,6.043,6.043,0,0,0,1.619-.915,3.873,3.873,0,0,0,1.056-1.337,3.344,3.344,0,0,0,.422-1.689V75.509a7.8,7.8,0,0,1-2.041.985A5.617,5.617,0,0,1,101.632,76.846Z" transform="translate(-30.888 -49.042)" fill="#ec008c"/>
      </g>
    </g>
    <g id="Group_5" data-name="Group 5" transform="translate(68.47 1.927)">
      <path id="Path_20" data-name="Path 20" d="M121.411,40.77l-.211.07c.282,0,.7.7.211.915-.422.141,1.056,1.056,1.267-.141.07-.211-.07-.282-.211-.141,0,0,0-.352-.07-.422-.422-.563-.422-.282-.985-.282Z" transform="translate(-104.355 -13.948)" fill="#ec008c"/>
      <path id="Path_21" data-name="Path 21" d="M120.6,41.315a2.553,2.553,0,0,0-1.76-.915,2.079,2.079,0,0,0-.915.141l-.352.422a9.5,9.5,0,0,1,1.267-.211,2.447,2.447,0,0,1,1.549.845,6.575,6.575,0,0,1,1.056,1.83,5.827,5.827,0,0,1,.352,2.393,13.207,13.207,0,0,1-1.76,6.406,4.224,4.224,0,0,0-1.408-1.689,3.865,3.865,0,0,0-1.971-.774,1.281,1.281,0,0,0-1.478.7,3,3,0,0,0,.563,3.027,2.433,2.433,0,0,0,1.478.7,3.034,3.034,0,0,0,1.83-.422,5,5,0,0,0,.915-.845c.563,1.76,0,4.435-3.1,8.025A15.081,15.081,0,0,1,114.548,63a11.749,11.749,0,0,0-4.223,5.068,10.817,10.817,0,0,0-1.126,4.223c-.07.774.774,1.337,1.619,1.971a2.935,2.935,0,0,0-.141-.422c-.563-.422-1.2-.985-1.126-1.549a10.193,10.193,0,0,1,1.126-4.083,11.779,11.779,0,0,1,4.083-5,15.081,15.081,0,0,0,2.323-2.041c3.308-3.731,3.8-6.617,3.1-8.517h0c.915-1.267,1.689-3.449,1.9-6.758a6.493,6.493,0,0,0-.352-2.534A5.15,5.15,0,0,0,120.6,41.315Zm-1.76,12.037a2.355,2.355,0,0,1-1.619.422,2.184,2.184,0,0,1-1.267-.634,2.7,2.7,0,0,1-.493-2.675c.141-.352.563-.563,1.2-.493a4.261,4.261,0,0,1,1.83.7,3.8,3.8,0,0,1,1.337,1.76A3.005,3.005,0,0,1,118.842,53.352Z" transform="translate(-100.8 -13.859)" fill="#ec008c"/>
      <path id="Path_22" data-name="Path 22" d="M120.643,39.962c-.282,0-.141,1.2.563.634.352-.282.493-1.056-.282-.563-.07,0-.07.07-.141.07Z" transform="translate(-104.15 -13.703)" fill="#ec008c"/>
      <g id="Group_4" data-name="Group 4" transform="translate(0 0)">
        <path id="Path_23" data-name="Path 23" d="M106.724,2.769a10.887,10.887,0,0,0-9.362,12.319c.7,6.124,7.18,14.571,16.612,14.008,3.1-2.675,5.42-10.488,4.716-16.472A10.9,10.9,0,0,0,106.724,2.769Zm-3.942,11.122a18.87,18.87,0,0,0,.352,4.364l-.352-.141c-.845-.7-1.619-2.675-2.041-4.083a12.14,12.14,0,0,1-.352-4.364c0-.282.07-.493.07-.7a17.237,17.237,0,0,1,3.8-.211A21.056,21.056,0,0,0,102.782,13.891Z" transform="translate(-97.27 -2.696)" fill="#ec008c"/>
      </g>
    </g>
  </g>
</svg>
